<svg xmlns="http://www.w3.org/2000/svg" xmlns:xlink="http://www.w3.org/1999/xlink" width="50" height="50" viewBox="0 0 50 50"><defs><style>.a{fill:#ffb81c;}.b{clip-path:url(#a);}</style><clipPath id="a"><rect class="a" width="50" height="50"/></clipPath></defs><g class="b"><path class="a" d="M45.258,9.138C42.89,1.322,36.444.1,36.444.1s2.926,2,2.474,3.757S34.579-1.647,21.766.6c-3.9.685-7.456,4.162-12.841-.6,0,0-.369,2.579,3.462,4.533,2.074,1.058-2.371,1.844-5.665,5.795C2.788,15.045,3.438,19.62.248,20.17c-1.376.237,3.36,1.039,4.99-.919A16.9,16.9,0,0,0,3.861,23,4.228,4.228,0,0,0,5.377,27.28,20.51,20.51,0,0,0,18.47,31.466c9.409-.434,13.485-4.26,13.077-4.95a14.591,14.591,0,0,1-1.684-3.678c-.623-2.479.086-4.813,4.206-5.68a14.984,14.984,0,0,0,9.148,9.125s1.035,5.831,6.439,1.01c0,0-2.436-11.679-4.4-18.156" transform="translate(0)"/><path class="a" d="M68.307,198.478c-1.311.631-2.48,1.393-5.151,2.71-4.25,2.1-7.6,3.758-13.135,3.758-7.327,0-11.424-2.63-13.322-4.352,3.887,6.129,12.481,9.454,17.476,8.9,8.3-.915,11.931-4.9,11.931-4.9a20.315,20.315,0,0,1-2.841,5.961c-1.207,1.715-3.23,3.657-3.921,2.495-.912-1.535-2.059-1.289-2.851-.62-1.214,1.025-3.854,5.469-2.9,6.709s6.939.851,10.115-2.012a23.062,23.062,0,0,0,5.223-7.212,32.277,32.277,0,0,0,2.519-7.715c.875-4.483-.7-4.9-3.138-3.73" transform="translate(-31.551 -170.156)"/></g></svg>