<svg xmlns="http://www.w3.org/2000/svg" width="122" height="104.997" viewBox="0 0 122 104.997"><defs><style>.a{fill:#f1b634;}</style></defs><g transform="translate(-951.695 21.302)"><g transform="translate(979.435 -21.302)"><g transform="translate(0)"><path class="a" d="M1132.061-9.061c-3.173-10.47-11.809-12.106-11.809-12.106s3.919,2.676,3.314,5.033-5.811-7.375-22.976-4.366c-5.231.917-9.988,5.575-17.2-.8,0,0-.495,3.455,4.637,6.073,2.778,1.417-3.176,2.47-7.589,7.763-5.269,6.319-4.4,12.448-8.672,13.184-1.843.318,4.5,1.392,6.685-1.232a22.623,22.623,0,0,0-1.844,5.02,5.664,5.664,0,0,0,2.031,5.737,27.477,27.477,0,0,0,17.54,5.607c12.6-.581,18.065-5.706,17.518-6.631a19.559,19.559,0,0,1-2.256-4.926c-.834-3.321.116-6.447,5.635-7.609a20.071,20.071,0,0,0,12.255,12.224s1.387,7.812,8.626,1.353C1137.954,15.261,1134.69-.385,1132.061-9.061Z" transform="translate(-1071.432 21.302)"/><g transform="translate(6.896 37.191)"><path class="a" d="M1143.542,139.982c-1.756.846-3.322,1.866-6.9,3.631-5.693,2.807-10.185,5.035-17.6,5.035-9.815,0-15.3-3.523-17.846-5.831,5.207,8.211,16.72,12.665,23.411,11.927,11.121-1.226,15.982-6.56,15.982-6.56a27.213,27.213,0,0,1-3.806,7.985c-1.617,2.3-4.327,4.9-5.252,3.342-1.222-2.056-2.758-1.727-3.82-.83-1.626,1.373-5.163,7.326-3.89,8.988s9.3,1.14,13.55-2.695a30.891,30.891,0,0,0,7-9.661,43.242,43.242,0,0,0,3.374-10.335C1148.918,138.973,1146.806,138.41,1143.542,139.982Z" transform="translate(-1101.2 -139.233)"/></g></g></g><g transform="translate(951.695 61.85)"><path class="a" d="M1057.748,346.572a5.867,5.867,0,0,1,6.224-5.289c3.173,0,5.288,1.871,5.939,5.289Zm-3.987,1.912c0,6.509,4.312,10.862,10.78,10.862,3.539,0,6.957-1.465,8.583-3.7l-1.953-2.441c-2.726,2.156-4.109,2.563-6.753,2.563a6.641,6.641,0,0,1-6.672-5.939h13.059a2.79,2.79,0,0,0,2.888-2.847,9.524,9.524,0,0,0-9.641-9.357C1058.033,337.622,1053.762,341.893,1053.762,348.484Zm-22.618,10.211h3.783V347.873c0-4.027,2.237-6.387,6.1-6.387,3.824,0,5.858,2.319,5.858,6.794v10.414h3.742V346.531c0-5.044-3.3-8.828-8.38-8.828a17.525,17.525,0,0,0-5.085.814,11.445,11.445,0,0,1-3.051.529,3.175,3.175,0,0,1-2.685-1.383l-.285.122Zm-23.473-10.17c0,7.282,4.922,10.821,10.13,10.821,4.434,0,8.543-2.36,10.211-5.7v-6.712h-10.617v1.22a1.843,1.843,0,0,0,2.034,2.034h5.126v2.522a7.734,7.734,0,0,1-6.224,3.051c-3.5,0-6.794-2.359-6.794-7.241,0-4.6,2.522-7.241,6.753-7.241a6.965,6.965,0,0,1,4.271,1.424,2.725,2.725,0,0,0,1.261.61c.692,0,1.22-.326,2.644-1.709-.61-.935-2.929-3.905-8.177-3.905C1011.78,337.7,1007.671,342.015,1007.671,348.524Zm-6.956,10.17h3.783V339.086a4.428,4.428,0,0,1-3.5-1.383l-.285.122Zm-19.323-2.359a11.278,11.278,0,0,0,8.054,3.132c3.946,0,7.526-1.953,7.526-6.021,0-2.481-1.3-4.271-6.061-6.305-3.5-1.505-4.678-2.441-4.678-3.865,0-1.261,1.058-1.994,2.888-1.994a9.3,9.3,0,0,1,3.946.854,1.82,1.82,0,0,0,2.278-.285l1.22-1.586a10.577,10.577,0,0,0-7.078-2.563c-3.946,0-7.119,1.749-7.119,5.41,0,3.336,2.034,5.289,6.021,6.875,3.458,1.383,4.719,2.522,4.719,3.7,0,1.261-1.383,2.115-3.58,2.115a8.65,8.65,0,0,1-5.655-2.034Zm-21.927,2.359h3.783V347.873c0-4.231,2.075-6.427,6.1-6.427,3.824,0,5.858,2.359,5.858,6.834v10.414h3.743V346.531c0-5.044-3.3-8.828-8.38-8.828a17.524,17.524,0,0,0-5.085.814,11.448,11.448,0,0,1-3.051.529,3.174,3.174,0,0,1-2.685-1.383l-.285.122Zm-7.77.122h3.783v-19.73a4.428,4.428,0,0,1-3.5-1.383l-.285.122Z" transform="translate(-951.695 -337.622)"/></g></g></svg>